<svg width="247" height="60" viewBox="0 0 247 60" fill="none" xmlns="http://www.w3.org/2000/svg">
<g clip-path="url(#clip0_4_11)">
<path d="M17.9196 33.1613C17.9196 33.343 17.9196 33.4721 17.9196 33.6001C17.9196 41.8282 17.9055 50.0564 17.9336 58.2858C17.9382 59.529 16.7543 60.3383 15.6544 59.8625C14.2591 59.2588 12.8486 58.691 11.4696 58.0479C10.2004 57.4561 9.50799 56.4173 9.50682 54.9625C9.50215 47.1622 9.50215 39.362 9.51149 31.5618C9.51149 31.1231 9.62008 30.6844 9.68197 30.2134C8.71751 29.8667 7.70284 29.4997 6.68701 29.1363C5.05584 28.5517 3.4235 27.972 1.79233 27.385C0.586169 26.9499 0.00936216 26.1035 0.00819453 24.7861C0.00819453 22.614 0.0362175 20.4419 2.11597e-05 18.271C-0.03384 16.2579 1.85654 15.182 3.4667 15.7594C11.814 18.7552 20.1626 21.7449 28.5111 24.7383C29.618 25.1352 30.203 25.9899 30.203 27.1794C30.203 29.4005 30.1458 31.624 30.2217 33.8427C30.2812 35.5845 28.5928 36.9652 26.797 36.3364C24.7303 35.6132 22.6718 34.8636 20.6086 34.1249C19.7305 33.8105 18.8525 33.4949 17.9207 33.1613H17.9196Z" fill="#E2B760"/>
<path d="M48.0957 33.1637C47.1277 33.5092 46.2135 33.8355 45.2992 34.1631C43.2827 34.8851 41.2698 35.6143 39.2509 36.3292C38.0553 36.7524 36.7884 36.3113 36.1532 35.2712C35.915 34.8815 35.8099 34.4536 35.8099 33.9945C35.8123 31.7232 35.8099 29.4531 35.8099 27.1818C35.8099 26.0126 36.4008 25.1376 37.4785 24.749C40.317 23.7258 43.159 22.712 45.9998 21.6947C51.5063 19.7222 57.014 17.7486 62.5205 15.7773C63.5002 15.4271 64.4027 15.5813 65.1944 16.2722C65.7233 16.7349 65.9919 17.335 65.9895 18.0594C65.9849 20.3499 65.9662 22.6415 65.9977 24.9319C66.0129 26.07 65.2831 27.0096 64.3362 27.3443C62.74 27.9098 61.1474 28.4872 59.5536 29.0598C58.5553 29.4184 57.5558 29.7746 56.5575 30.1333C56.4676 30.1656 56.38 30.2026 56.2656 30.248C56.6193 31.0562 56.5201 31.9001 56.5201 32.731C56.5248 40.1116 56.5248 47.4922 56.5201 54.8728C56.5201 56.4089 55.802 57.4896 54.4417 58.1028C53.1095 58.7041 51.7609 59.2684 50.4158 59.841C49.4338 60.2594 48.3888 59.7908 48.1436 58.8201C48.0934 58.6217 48.0945 58.4065 48.0945 58.1985C48.0922 50.0014 48.0922 41.8031 48.0922 33.606C48.0922 33.4781 48.0922 33.349 48.0922 33.1649L48.0957 33.1637Z" fill="#E2B760"/>
<path d="M33.3532 -2.52697e-05C33.8623 0.13984 34.4496 0.243843 34.9949 0.461412C43.2792 3.77157 51.5588 7.09726 59.8385 10.4194C60.274 10.5939 60.483 10.8521 60.4771 11.2119C60.4713 11.573 60.2611 11.8192 59.8128 11.9806C57.1307 12.9501 54.4464 13.9148 51.7655 14.8891C51.4257 15.0122 51.1163 15.0063 50.7789 14.8664C48.0046 13.7224 45.2256 12.5927 42.4502 11.4522C42.2482 11.3685 42.0719 11.3542 41.8664 11.4439C39.419 12.5114 36.9682 13.5705 34.5173 14.6321C34.4905 14.644 34.4566 14.6476 34.4368 14.6667C34.3457 14.7576 34.1892 14.8508 34.1892 14.9453C34.1892 15.0373 34.3305 15.17 34.4391 15.2155C35.1035 15.4964 35.7749 15.757 36.4439 16.0236C38.0261 16.6559 39.6082 17.2931 41.1927 17.9195C41.5009 18.0415 41.7239 18.216 41.7344 18.5758C41.7438 18.889 41.5605 19.0958 41.1635 19.2381C38.7453 20.106 36.3272 20.975 33.9067 21.8393C32.7963 22.2362 31.6905 22.1968 30.6011 21.7533C25.0619 19.4975 19.5239 17.2381 13.9847 14.98C11.3236 13.8957 8.66029 12.8174 6.00394 11.7212C5.79377 11.6351 5.57076 11.4642 5.45983 11.2693C5.22631 10.8581 5.45983 10.3907 5.94323 10.2114C7.54988 9.61724 9.15887 9.02789 10.7679 8.43734C11.6728 8.10501 12.5788 7.77866 13.4826 7.44155C14.0092 7.2455 14.5206 7.25386 15.0449 7.46546C17.602 8.49353 20.1649 9.50965 22.7208 10.5401C22.9812 10.6453 23.2042 10.6585 23.4728 10.5557C26.1081 9.54073 28.7493 8.54135 31.3846 7.52881C31.5119 7.4798 31.6065 7.34233 31.7162 7.24669C31.6041 7.14149 31.5095 6.99206 31.3776 6.93827C29.2619 6.06202 27.1415 5.19891 25.0234 4.32864C24.4839 4.10629 24.2971 3.56237 24.6252 3.13321C24.7256 3.00051 24.8903 2.89412 25.0467 2.83554C27.3563 1.97961 29.6659 1.12488 31.9836 0.292856C32.3899 0.147013 32.8336 0.106368 33.3509 -0.0012207L33.3532 -2.52697e-05Z" fill="#E2B760"/>
</g>
<path d="M87.7614 43V19.7273H93.3864V29.0682H102.557V19.7273H108.17V43H102.557V33.6477H93.3864V43H87.7614ZM111.699 43V25.5455H117.256V43H111.699ZM114.483 23.5114C113.703 23.5114 113.032 23.2538 112.472 22.7386C111.911 22.2159 111.631 21.5871 111.631 20.8523C111.631 20.125 111.911 19.5038 112.472 18.9886C113.032 18.4659 113.703 18.2045 114.483 18.2045C115.271 18.2045 115.941 18.4659 116.494 18.9886C117.055 19.5038 117.335 20.125 117.335 20.8523C117.335 21.5871 117.055 22.2159 116.494 22.7386C115.941 23.2538 115.271 23.5114 114.483 23.5114ZM128.929 49.9091C127.27 49.9091 125.849 49.678 124.668 49.2159C123.486 48.7538 122.558 48.1212 121.884 47.3182C121.209 46.5152 120.804 45.6061 120.668 44.5909L125.929 44.2955C126.027 44.6515 126.209 44.9621 126.474 45.2273C126.747 45.4924 127.099 45.697 127.531 45.8409C127.971 45.9848 128.486 46.0568 129.077 46.0568C130.009 46.0568 130.777 45.8295 131.384 45.375C131.997 44.928 132.304 44.1439 132.304 43.0227V39.9545H132.111C131.891 40.4924 131.558 40.9735 131.111 41.3977C130.664 41.822 130.107 42.1553 129.44 42.3977C128.781 42.6402 128.024 42.7614 127.168 42.7614C125.895 42.7614 124.728 42.4659 123.668 41.875C122.615 41.2765 121.77 40.3523 121.134 39.1023C120.505 37.8447 120.19 36.2273 120.19 34.25C120.19 32.2121 120.516 30.5341 121.168 29.2159C121.819 27.8902 122.671 26.9091 123.724 26.2727C124.785 25.6364 125.925 25.3182 127.145 25.3182C128.062 25.3182 128.846 25.4773 129.497 25.7955C130.156 26.1061 130.698 26.5076 131.122 27C131.546 27.4924 131.868 28.0038 132.088 28.5341H132.247V25.5455H137.781V43.0682C137.781 44.5455 137.41 45.7917 136.668 46.8068C135.925 47.822 134.887 48.5909 133.554 49.1136C132.221 49.6439 130.679 49.9091 128.929 49.9091ZM129.099 38.7159C129.774 38.7159 130.349 38.5379 130.827 38.1818C131.304 37.8258 131.671 37.3144 131.929 36.6477C132.187 35.9811 132.315 35.1818 132.315 34.25C132.315 33.303 132.187 32.4886 131.929 31.8068C131.679 31.1174 131.312 30.5871 130.827 30.2159C130.349 29.8447 129.774 29.6591 129.099 29.6591C128.41 29.6591 127.827 29.8485 127.349 30.2273C126.872 30.6061 126.509 31.1402 126.259 31.8295C126.016 32.5114 125.895 33.3182 125.895 34.25C125.895 35.1818 126.02 35.9811 126.27 36.6477C126.52 37.3144 126.88 37.8258 127.349 38.1818C127.827 38.5379 128.41 38.7159 129.099 38.7159ZM146.881 33.0455V43H141.324V19.7273H146.699V28.75H146.892C147.286 27.6742 147.93 26.8333 148.824 26.2273C149.725 25.6212 150.828 25.3182 152.131 25.3182C153.358 25.3182 154.426 25.5909 155.335 26.1364C156.244 26.6742 156.949 27.4356 157.449 28.4205C157.956 29.4053 158.206 30.5568 158.199 31.875V43H152.642V32.9659C152.65 31.9962 152.407 31.2386 151.915 30.6932C151.422 30.1477 150.729 29.875 149.835 29.875C149.252 29.875 148.737 30.0038 148.29 30.2614C147.85 30.5114 147.506 30.8712 147.256 31.3409C147.013 31.8106 146.888 32.3788 146.881 33.0455ZM159.438 24.2955V19.7273H179.108V24.2955H172.051V43H166.506V24.2955H159.438ZM184.401 43.2955C183.287 43.2955 182.298 43.1098 181.435 42.7386C180.579 42.3598 179.901 41.7917 179.401 41.0341C178.908 40.2689 178.662 39.3106 178.662 38.1591C178.662 37.1894 178.832 36.3712 179.173 35.7045C179.514 35.0379 179.984 34.4962 180.582 34.0795C181.181 33.6629 181.87 33.3485 182.651 33.1364C183.431 32.9167 184.264 32.7689 185.151 32.6932C186.143 32.6023 186.942 32.5076 187.548 32.4091C188.154 32.303 188.594 32.1553 188.866 31.9659C189.147 31.7689 189.287 31.4924 189.287 31.1364V31.0795C189.287 30.4962 189.086 30.0455 188.685 29.7273C188.283 29.4091 187.741 29.25 187.06 29.25C186.325 29.25 185.734 29.4091 185.287 29.7273C184.84 30.0455 184.556 30.4848 184.435 31.0455L179.31 30.8636C179.461 29.803 179.851 28.8561 180.48 28.0227C181.116 27.1818 181.988 26.5227 183.094 26.0455C184.207 25.5606 185.545 25.3182 187.105 25.3182C188.219 25.3182 189.245 25.4508 190.185 25.7159C191.124 25.9735 191.942 26.3523 192.639 26.8523C193.336 27.3447 193.874 27.9508 194.253 28.6705C194.639 29.3902 194.832 30.2121 194.832 31.1364V43H189.605V40.5682H189.469C189.158 41.1591 188.76 41.6591 188.276 42.0682C187.798 42.4773 187.234 42.7841 186.582 42.9886C185.938 43.1932 185.211 43.2955 184.401 43.2955ZM186.116 39.6591C186.715 39.6591 187.253 39.5379 187.73 39.2955C188.215 39.053 188.601 38.7197 188.889 38.2955C189.177 37.8636 189.321 37.3636 189.321 36.7955V35.1364C189.162 35.2197 188.969 35.2955 188.741 35.3636C188.522 35.4318 188.279 35.4962 188.014 35.5568C187.749 35.6174 187.476 35.6705 187.196 35.7159C186.916 35.7614 186.647 35.803 186.389 35.8409C185.866 35.9242 185.42 36.053 185.048 36.2273C184.685 36.4015 184.404 36.6288 184.207 36.9091C184.018 37.1818 183.923 37.5076 183.923 37.8864C183.923 38.4621 184.128 38.9015 184.537 39.2045C184.954 39.5076 185.48 39.6591 186.116 39.6591ZM198.23 43V19.7273H203.787V28.5341H203.901C204.128 28.0038 204.45 27.4924 204.866 27C205.291 26.5076 205.829 26.1061 206.48 25.7955C207.139 25.4773 207.927 25.3182 208.844 25.3182C210.056 25.3182 211.188 25.6364 212.241 26.2727C213.302 26.9091 214.158 27.8902 214.81 29.2159C215.461 30.5417 215.787 32.2311 215.787 34.2841C215.787 36.2614 215.473 37.9167 214.844 39.25C214.223 40.5833 213.382 41.5833 212.321 42.25C211.268 42.9167 210.098 43.25 208.81 43.25C207.931 43.25 207.17 43.1061 206.526 42.8182C205.882 42.5303 205.34 42.1515 204.901 41.6818C204.469 41.2121 204.135 40.7083 203.901 40.1705H203.73V43H198.23ZM203.673 34.2727C203.673 35.2121 203.798 36.0303 204.048 36.7273C204.306 37.4242 204.673 37.9659 205.151 38.3523C205.635 38.7311 206.215 38.9205 206.889 38.9205C207.571 38.9205 208.151 38.7311 208.628 38.3523C209.105 37.9659 209.465 37.4242 209.707 36.7273C209.957 36.0303 210.082 35.2121 210.082 34.2727C210.082 33.3333 209.957 32.5189 209.707 31.8295C209.465 31.1402 209.105 30.6061 208.628 30.2273C208.158 29.8485 207.579 29.6591 206.889 29.6591C206.207 29.6591 205.628 29.8447 205.151 30.2159C204.673 30.5871 204.306 31.1174 204.048 31.8068C203.798 32.4962 203.673 33.3182 203.673 34.2727ZM224.256 19.7273V43H218.699V19.7273H224.256ZM235.952 43.3295C234.126 43.3295 232.55 42.9697 231.224 42.25C229.906 41.5227 228.891 40.4886 228.179 39.1477C227.474 37.7992 227.122 36.197 227.122 34.3409C227.122 32.5379 227.478 30.9621 228.19 29.6136C228.902 28.2576 229.906 27.2045 231.202 26.4545C232.497 25.697 234.024 25.3182 235.781 25.3182C237.024 25.3182 238.16 25.5114 239.19 25.8977C240.221 26.2841 241.111 26.8561 241.861 27.6136C242.611 28.3712 243.194 29.3068 243.611 30.4205C244.027 31.5265 244.236 32.7955 244.236 34.2273V35.6136H229.065V32.3864H239.065C239.058 31.7955 238.918 31.2689 238.645 30.8068C238.372 30.3447 237.997 29.9848 237.52 29.7273C237.05 29.4621 236.509 29.3295 235.895 29.3295C235.274 29.3295 234.717 29.4697 234.224 29.75C233.732 30.0227 233.342 30.3977 233.054 30.875C232.766 31.3447 232.615 31.8788 232.599 32.4773V35.7614C232.599 36.4735 232.74 37.0985 233.02 37.6364C233.3 38.1667 233.698 38.5795 234.213 38.875C234.728 39.1705 235.342 39.3182 236.054 39.3182C236.546 39.3182 236.993 39.25 237.395 39.1136C237.796 38.9773 238.141 38.7765 238.429 38.5114C238.717 38.2462 238.933 37.9205 239.077 37.5341L244.179 37.6818C243.967 38.8258 243.501 39.822 242.781 40.6705C242.069 41.5114 241.134 42.1667 239.974 42.6364C238.815 43.0985 237.474 43.3295 235.952 43.3295Z" fill="#E2B760"/>
<defs>
<clipPath id="clip0_4_11">
<rect width="66" height="60" fill="white"/>
</clipPath>
</defs>
</svg>
