<svg width="43" height="50" viewBox="0 0 43 50" fill="none" xmlns="http://www.w3.org/2000/svg">
<g clip-path="url(#clip0_61_6)">
<path d="M21.4831 41.6735C15.6515 41.6735 9.82189 41.6774 3.99029 41.6735C1.99729 41.6735 0.47477 40.5628 0.0931314 38.7852C-0.221872 37.3186 0.282941 36.1004 1.45209 35.1265C2.8696 33.9454 4.00039 32.5414 4.85655 30.932C5.95502 28.867 6.45378 26.6651 6.45782 24.3498C6.46186 22.3317 6.43157 20.3137 6.47397 18.2956C6.61734 11.4807 11.9502 5.53013 18.9045 4.40964C19.2659 4.35097 19.3871 4.23755 19.3709 3.88752C19.3447 3.26958 19.3508 2.64969 19.3709 2.03176C19.4053 0.878016 20.3382 0 21.5053 0C22.6724 0 23.6053 0.874105 23.6437 2.0298C23.6659 2.66338 23.6639 3.29892 23.6437 3.93445C23.6356 4.23755 23.7366 4.34902 24.0556 4.40377C30.0427 5.40303 34.8223 9.75204 36.1631 15.4953C36.4296 16.6412 36.5003 17.8458 36.5407 19.025C36.6134 21.2191 36.4983 23.4229 36.6396 25.613C36.8779 29.3559 38.5357 32.4827 41.4131 34.9857C42.243 35.7073 42.8831 36.511 42.9821 37.6178C43.1901 39.9057 41.502 41.6618 39.0748 41.6696C35.8157 41.6813 32.5547 41.6735 29.2956 41.6735C26.6907 41.6735 24.0859 41.6735 21.4811 41.6735H21.4831Z" fill="#818181"/>
<path d="M13.6501 43.762H29.3418C29.2832 46.6913 25.485 49.8533 21.9049 49.9941C17.4161 50.1701 14.1812 46.9064 13.6522 43.762H13.6501Z" fill="#818181"/>
<circle cx="32.5" cy="12.5" r="8.5" fill="#C69C48"/>
</g>
<defs>
<clipPath id="clip0_61_6">
<rect width="43" height="50" fill="white"/>
</clipPath>
</defs>
</svg>
