<svg width="24" height="24" viewBox="0 0 24 24" fill="none" xmlns="http://www.w3.org/2000/svg">
<g id="Icon / Rounded / search">
<path id="Vector" fill-rule="evenodd" clip-rule="evenodd" d="M15.1872 14.4716H15.9772L20.2172 18.7316C20.6272 19.1416 20.6272 19.8116 20.2172 20.2216C19.8072 20.6316 19.1372 20.6316 18.7272 20.2216L14.4772 15.9716V15.1816L14.2072 14.9016C12.8072 16.1016 10.8972 16.7216 8.86719 16.3816C6.08719 15.9116 3.86719 13.5916 3.52719 10.7916C3.00719 6.56157 6.56719 3.00157 10.7972 3.52157C13.5972 3.86157 15.9172 6.08157 16.3872 8.86157C16.7272 10.8916 16.1072 12.8016 14.9072 14.2016L15.1872 14.4716ZM5.47719 9.97157C5.47719 12.4616 7.48719 14.4716 9.97719 14.4716C12.4672 14.4716 14.4772 12.4616 14.4772 9.97157C14.4772 7.48157 12.4672 5.47157 9.97719 5.47157C7.48719 5.47157 5.47719 7.48157 5.47719 9.97157Z" fill="white"/>
</g>
</svg>
