<?xml version="1.0" encoding="UTF-8"?>
<svg id="Layer_2" data-name="Layer 2" xmlns="http://www.w3.org/2000/svg" viewBox="0 0 565.25 501.91">
  <defs>
    <style>
      .cls-1 {
        fill: #000;
        stroke-width: 0px;
      }
    </style>
  </defs>
  <g id="Layer_1-2" data-name="Layer 1">
    <g>
      <path class="cls-1" d="M153.47,277.4c0,1.52,0,2.6,0,3.67,0,68.83-.12,137.66.12,206.5.04,10.4-10.1,17.17-19.52,13.19-11.95-5.05-24.03-9.8-35.84-15.18-10.87-4.95-16.8-13.64-16.81-25.81-.04-65.25-.04-130.5.04-195.75,0-3.67.93-7.34,1.46-11.28-8.26-2.9-16.95-5.97-25.65-9.01-13.97-4.89-27.95-9.74-41.92-14.65C5.02,225.44.08,218.36.07,207.34c0-18.17.24-36.34-.07-54.5-.29-16.84,15.9-25.84,29.69-21.01,71.49,25.06,142.99,50.07,214.49,75.11,9.48,3.32,14.49,10.47,14.49,20.42,0,18.58-.49,37.18.16,55.74.51,14.57-13.95,26.12-29.33,20.86-17.7-6.05-35.33-12.32-53-18.5-7.52-2.63-15.04-5.27-23.02-8.06Z"/>
      <path class="cls-1" d="M411.91,277.42c-8.29,2.89-16.12,5.62-23.95,8.36-17.27,6.04-34.51,12.14-51.8,18.12-10.24,3.54-21.09-.15-26.53-8.85-2.04-3.26-2.94-6.84-2.94-10.68.02-19,0-37.99,0-56.99,0-9.78,5.06-17.1,14.29-20.35,24.31-8.56,48.65-17.04,72.98-25.55,47.16-16.5,94.33-33.01,141.49-49.5,8.39-2.93,16.12-1.64,22.9,4.14,4.53,3.87,6.83,8.89,6.81,14.95-.04,19.16-.2,38.33.07,57.49.13,9.52-6.12,17.38-14.23,20.18-13.67,4.73-27.31,9.56-40.96,14.35-8.55,3-17.11,5.98-25.66,8.98-.77.27-1.52.58-2.5.96,3.03,6.76,2.18,13.82,2.18,20.77.04,61.74.04,123.48,0,185.22,0,12.85-6.15,21.89-17.8,27.02-11.41,5.03-22.96,9.75-34.48,14.54-8.41,3.5-17.36-.42-19.46-8.54-.43-1.66-.42-3.46-.42-5.2-.02-68.57-.02-137.15-.02-205.72,0-1.07,0-2.15,0-3.69Z"/>
      <path class="cls-1" d="M285.65,0c4.36,1.17,9.39,2.04,14.06,3.86,70.95,27.69,141.86,55.51,212.77,83.3,3.73,1.46,5.52,3.62,5.47,6.63-.05,3.02-1.85,5.08-5.69,6.43-22.97,8.11-45.96,16.18-68.92,24.33-2.91,1.03-5.56.98-8.45-.19-23.76-9.57-47.56-19.02-71.33-28.56-1.73-.7-3.24-.82-5-.07-20.96,8.93-41.95,17.79-62.94,26.67-.23.1-.52.13-.69.29-.78.76-2.12,1.54-2.12,2.33,0,.77,1.21,1.88,2.14,2.26,5.69,2.35,11.44,4.53,17.17,6.76,13.55,5.29,27.1,10.62,40.67,15.86,2.64,1.02,4.55,2.48,4.64,5.49.08,2.62-1.49,4.35-4.89,5.54-20.71,7.26-41.42,14.53-62.15,21.76-9.51,3.32-18.98,2.99-28.31-.72-47.44-18.87-94.87-37.77-142.31-56.66-22.79-9.07-45.6-18.09-68.35-27.26-1.8-.72-3.71-2.15-4.66-3.78-2-3.44,0-7.35,4.14-8.85,13.76-4.97,27.54-9.9,41.32-14.84,7.75-2.78,15.51-5.51,23.25-8.33,4.51-1.64,8.89-1.57,13.38.2,21.9,8.6,43.85,17.1,65.74,25.72,2.23.88,4.14.99,6.44.13,22.57-8.49,45.19-16.85,67.76-25.32,1.09-.41,1.9-1.56,2.84-2.36-.96-.88-1.77-2.13-2.9-2.58-18.12-7.33-36.28-14.55-54.42-21.83-4.62-1.86-6.22-6.41-3.41-10,.86-1.11,2.27-2,3.61-2.49,19.78-7.16,39.56-14.31,59.41-21.27,3.48-1.22,7.28-1.56,11.71-2.46Z"/>
    </g>
  </g>
</svg>