<svg width="66" height="60" viewBox="0 0 66 60" fill="none" xmlns="http://www.w3.org/2000/svg">
<g clip-path="url(#clip0_4_2)">
<path d="M17.9196 33.1613C17.9196 33.343 17.9196 33.4721 17.9196 33.6001C17.9196 41.8282 17.9055 50.0564 17.9336 58.2858C17.9382 59.529 16.7543 60.3383 15.6544 59.8625C14.2591 59.2588 12.8486 58.691 11.4696 58.0479C10.2004 57.4561 9.50799 56.4173 9.50682 54.9625C9.50215 47.1622 9.50215 39.362 9.51149 31.5618C9.51149 31.1231 9.62008 30.6844 9.68197 30.2134C8.71751 29.8667 7.70284 29.4997 6.68701 29.1363C5.05584 28.5517 3.4235 27.972 1.79233 27.385C0.586169 26.9499 0.00936216 26.1035 0.00819453 24.7861C0.00819453 22.614 0.0362175 20.4419 2.11597e-05 18.271C-0.03384 16.2579 1.85654 15.182 3.4667 15.7594C11.814 18.7552 20.1626 21.7449 28.5111 24.7383C29.618 25.1352 30.203 25.9899 30.203 27.1794C30.203 29.4005 30.1458 31.624 30.2217 33.8427C30.2812 35.5845 28.5928 36.9652 26.797 36.3364C24.7303 35.6132 22.6718 34.8636 20.6086 34.1249C19.7305 33.8105 18.8525 33.4949 17.9207 33.1613H17.9196Z" fill="#E2B760"/>
<path d="M48.0957 33.1637C47.1277 33.5092 46.2135 33.8355 45.2992 34.1631C43.2827 34.8851 41.2698 35.6143 39.2509 36.3292C38.0553 36.7524 36.7884 36.3113 36.1532 35.2712C35.915 34.8815 35.8099 34.4536 35.8099 33.9945C35.8123 31.7232 35.8099 29.4531 35.8099 27.1818C35.8099 26.0126 36.4008 25.1376 37.4785 24.749C40.317 23.7258 43.159 22.712 45.9998 21.6947C51.5063 19.7222 57.014 17.7486 62.5205 15.7773C63.5002 15.4271 64.4027 15.5813 65.1944 16.2722C65.7233 16.7349 65.9919 17.335 65.9895 18.0594C65.9849 20.3499 65.9662 22.6415 65.9977 24.9319C66.0129 26.07 65.2831 27.0096 64.3362 27.3443C62.74 27.9098 61.1474 28.4872 59.5536 29.0598C58.5553 29.4184 57.5558 29.7746 56.5575 30.1333C56.4676 30.1656 56.38 30.2026 56.2656 30.248C56.6193 31.0562 56.5201 31.9001 56.5201 32.731C56.5248 40.1116 56.5248 47.4922 56.5201 54.8728C56.5201 56.4089 55.802 57.4896 54.4417 58.1028C53.1095 58.7041 51.7609 59.2684 50.4158 59.841C49.4338 60.2594 48.3888 59.7908 48.1436 58.8201C48.0934 58.6217 48.0945 58.4065 48.0945 58.1985C48.0922 50.0014 48.0922 41.8031 48.0922 33.606C48.0922 33.4781 48.0922 33.349 48.0922 33.1649L48.0957 33.1637Z" fill="#E2B760"/>
<path d="M33.3532 -2.52697e-05C33.8623 0.13984 34.4496 0.243843 34.9949 0.461412C43.2792 3.77157 51.5588 7.09726 59.8385 10.4194C60.274 10.5939 60.483 10.8521 60.4771 11.2119C60.4713 11.573 60.2611 11.8192 59.8128 11.9806C57.1307 12.9501 54.4464 13.9148 51.7655 14.8891C51.4257 15.0122 51.1163 15.0063 50.7789 14.8664C48.0046 13.7224 45.2256 12.5927 42.4502 11.4522C42.2482 11.3685 42.0719 11.3542 41.8664 11.4439C39.419 12.5114 36.9682 13.5705 34.5173 14.6321C34.4905 14.644 34.4566 14.6476 34.4368 14.6667C34.3457 14.7576 34.1892 14.8508 34.1892 14.9453C34.1892 15.0373 34.3305 15.17 34.4391 15.2155C35.1035 15.4964 35.7749 15.757 36.4439 16.0236C38.0261 16.6559 39.6082 17.2931 41.1927 17.9195C41.5009 18.0415 41.7239 18.216 41.7344 18.5758C41.7438 18.889 41.5605 19.0958 41.1635 19.2381C38.7453 20.106 36.3272 20.975 33.9067 21.8393C32.7963 22.2362 31.6905 22.1968 30.6011 21.7533C25.0619 19.4975 19.5239 17.2381 13.9847 14.98C11.3236 13.8957 8.66029 12.8174 6.00394 11.7212C5.79377 11.6351 5.57076 11.4642 5.45983 11.2693C5.22631 10.8581 5.45983 10.3907 5.94323 10.2114C7.54988 9.61724 9.15887 9.02789 10.7679 8.43734C11.6728 8.10501 12.5788 7.77866 13.4826 7.44155C14.0092 7.2455 14.5206 7.25386 15.0449 7.46546C17.602 8.49353 20.1649 9.50965 22.7208 10.5401C22.9812 10.6453 23.2042 10.6585 23.4728 10.5557C26.1081 9.54073 28.7493 8.54135 31.3846 7.52881C31.5119 7.4798 31.6065 7.34233 31.7162 7.24669C31.6041 7.14149 31.5095 6.99206 31.3776 6.93827C29.2619 6.06202 27.1415 5.19891 25.0234 4.32864C24.4839 4.10629 24.2971 3.56237 24.6252 3.13321C24.7256 3.00051 24.8903 2.89412 25.0467 2.83554C27.3563 1.97961 29.6659 1.12488 31.9836 0.292856C32.3899 0.147013 32.8336 0.106368 33.3509 -0.0012207L33.3532 -2.52697e-05Z" fill="#E2B760"/>
</g>
<defs>
<clipPath id="clip0_4_2">
<rect width="66" height="60" fill="white"/>
</clipPath>
</defs>
</svg>
