<svg width="52" height="52" viewBox="0 0 52 52" fill="none" xmlns="http://www.w3.org/2000/svg">
<g clip-path="url(#clip0_6_19)">
<path d="M1.70062e-05 25.9827C0.0162664 11.6325 11.665 -0.00406128 26.0051 1.0633e-06C40.3675 0.0040634 52.0447 11.7016 52 26.0416C51.9574 40.4061 40.3005 52.0305 25.9706 52C11.6143 51.9695 -0.0162324 40.3187 1.70062e-05 25.9827ZM26.0152 29.1595C24.3741 29.1595 22.7329 29.1453 21.0917 29.1615C16.4606 29.2062 12.8919 32.387 12.3272 36.9673C12.1525 38.3932 12.4673 39.6769 13.6048 40.6336C16.7105 43.2396 20.2813 44.765 24.3294 45.1082C28.932 45.4962 33.1487 44.3648 36.9409 41.7284C37.6823 41.2125 38.4135 40.6254 38.9883 39.9348C39.8678 38.8786 39.7906 37.5767 39.5591 36.3011C38.8015 32.1108 35.2632 29.1981 30.884 29.1615C29.2611 29.1473 27.6361 29.1595 26.0112 29.1595H26.0152ZM34.601 16.2981C34.4771 11.466 30.5894 7.67376 25.8853 7.7936C21.1039 7.91547 17.3137 11.7727 17.4011 16.4281C17.4925 21.2542 21.4187 25.0931 26.1392 24.9732C30.8819 24.8534 34.7188 20.9211 34.599 16.3001L34.601 16.2981Z" fill="#E2B760"/>
</g>
<defs>
<clipPath id="clip0_6_19">
<rect width="52" height="52" fill="white"/>
</clipPath>
</defs>
</svg>
